<?xml version="1.0" encoding="UTF-8"?> <svg xmlns="http://www.w3.org/2000/svg" width="185" height="141" viewBox="0 0 185 141" fill="none"><path d="M58.6963 85.2877C44.1688 79.0802 29.6413 73.2952 29.6413 59.759C29.6413 49.0421 36.5556 40.9983 53.7644 40.9983C80.1381 40.9983 84.0869 57.5002 83.8106 79.2265C83.8106 81.0627 85.2244 81.0627 85.2244 79.2265C85.2244 56.9396 86.3538 47.6283 86.0694 44.809C85.9313 43.6796 85.5088 43.5415 84.5175 43.2571C76.4819 41.4208 67.8694 39.5927 53.7725 39.5927C35.8569 39.5927 20.7688 49.6108 20.7688 66.389C20.7688 81.339 36.1413 87.969 51.2375 94.1765C65.6269 100.238 79.7319 105.885 79.7319 119.705C79.7319 130.853 72.9638 138.75 57.445 138.75C34.0288 138.75 24.5794 124.645 24.5794 98.4096C24.5794 96.4352 23.0275 96.4352 23.0275 98.4096C23.0275 105.324 23.1656 128.033 23.1656 134.517C23.1656 135.362 23.3038 135.646 24.5794 135.931C34.5975 138.612 42.2106 140.164 57.445 140.164C74.3694 140.164 88.1981 129.301 88.1981 113.083C88.1819 97.8408 73.37 91.349 58.6963 85.2877Z" fill="#F6EFE9"></path><path d="M183.22 137.475H181.53C174.193 137.475 170.667 132.819 161.64 110.11C156.278 97.5565 154.303 88.6677 145.561 84.1583C143.164 82.8908 141.466 82.3221 136.818 82.3221C132.869 82.3221 129.628 83.5896 126.946 85.2877L140.491 70.7602C162.493 47.4821 167.287 42.2658 177.167 42.2658H177.451C178.296 42.2658 178.443 40.9983 177.451 40.9983C173.925 40.9983 164.338 41.2827 162.501 41.2827C160.243 41.2827 149.526 40.9983 147.129 40.9983C145.999 40.9983 145.577 41.4208 145.577 41.8433C145.577 42.2658 146.138 42.6883 146.844 42.6883C147.405 42.6883 148.957 42.1277 150.086 42.1277C153.613 42.1277 155.449 43.3952 155.587 45.654C155.587 49.6027 150.224 58.069 139.223 69.9152L113.833 97.2802V62.5783C113.889 59.9052 113.938 56.8177 113.8 54.5996C113.077 32.1583 97.2088 11.4233 76.1975 4.08646C41.6094 -8.36916 0.68376 18.4515 0.68376 54.6565C0.68376 68.3796 0.383133 124.67 0.383133 138.474H1.29314H3.95813C3.95813 111.67 3.95813 85.6615 3.95813 59.9702C3.95813 51.9265 5.14439 43.8177 8.08564 36.099C14.74 17.119 34.8981 4.50084 54.8288 6.06897C80.8938 7.67772 101.946 28.8758 103.108 55.0871V96.289C103.108 102.781 102.969 116.74 102.685 124.499C102.401 132.112 101.84 135.216 99.8656 137.19C99.0206 137.328 96.9 137.475 93.3738 137.475C92.2444 137.475 92.2444 138.742 93.3738 138.742C94.5031 138.742 107.341 138.458 109.453 138.458C111.566 138.458 123.42 138.742 124.541 138.742C125.671 138.742 125.671 137.475 124.541 137.475H121.438C114.523 137.475 113.824 136.914 113.824 102.212V99.2546L123.412 88.9602C127.645 85.2958 129.619 85.1496 132.301 85.1496C141.328 85.1496 146.828 102.22 151.199 114.627C155.294 125.766 158.252 132.543 160.933 135.923C163.046 138.458 164.882 139.311 167.986 139.311C170.098 139.311 173.202 138.75 178.142 138.75H182.936C184.91 138.742 185.048 137.475 183.22 137.475Z" fill="#F6EFE9"></path></svg> 